<svg xmlns="http://www.w3.org/2000/svg" width="85" height="134" viewBox="0 0 85 134">
  <g id="logo" transform="translate(-8129.105 -209.226)">
    <path id="Path_399" data-name="Path 399" d="M8197.308,340.706a14.3,14.3,0,0,0,14.279-14.329V251.868a39.981,39.981,0,1,0-79.961,0v74.509a14.3,14.3,0,0,0,14.278,14.329Z" fill="#196b53"/>
    <path id="Path_400" data-name="Path 400" d="M8197.307,343.226h-51.4a16.846,16.846,0,0,1-16.8-16.855v-74.5a42.5,42.5,0,1,1,85,0v74.5a16.845,16.845,0,0,1-16.8,16.855m-25.7-128.945a37.568,37.568,0,0,0-37.462,37.589v74.5a11.793,11.793,0,0,0,11.761,11.8h51.4a11.793,11.793,0,0,0,11.761-11.8v-74.5a37.567,37.567,0,0,0-37.462-37.589" fill="#1a1211"/>
    <path id="Path_401" data-name="Path 401" d="M8171.605,291.746a40,40,0,1,0-39.98-40V291.6Z" fill="#5bbeda"/>
    <path id="Path_402" data-name="Path 402" d="M8171.6,294.267h-.009l-42.491-.157V251.747a42.5,42.5,0,1,1,42.5,42.52m-37.462-5.178,37.467.138a37.48,37.48,0,1,0-37.467-37.48Z" fill="#1a1211"/>
    <path id="Path_403" data-name="Path 403" d="M8180.911,212.856a39.583,39.583,0,0,0-9.286-1.11,40.178,40.178,0,0,0-40,40.121v74.51a14.307,14.307,0,0,0,14.286,14.328h4.286V251.867a40.246,40.246,0,0,1,30.714-39.01" fill="#fabf36"/>
    <path id="Path_404" data-name="Path 404" d="M8150.2,343.226h-4.286a16.851,16.851,0,0,1-16.806-16.855v-74.5a42.458,42.458,0,0,1,52.4-41.464,2.529,2.529,0,0,1,0,4.915,37.956,37.956,0,0,0-28.784,36.549V340.7a2.523,2.523,0,0,1-2.519,2.527m19.967-128.917a37.585,37.585,0,0,0-36.018,37.561v74.5a11.8,11.8,0,0,0,11.765,11.8h1.766v-86.3a42.756,42.756,0,0,1,22.487-37.561" fill="#1a1211"/>
  </g>
</svg>
