<svg xmlns="http://www.w3.org/2000/svg" width="101" height="13" viewBox="0 0 101 13">
  <g id="sub-title" transform="translate(-8121.106 -387.797)">
    <path id="Path_386" data-name="Path 386" d="M8124.858,388.03a3.194,3.194,0,0,1-.014,6.387h-2.5v3.545h-1.239V388.03Zm-2.513,5.286h2.189a2.1,2.1,0,1,0,0-4.185h-2.189Z" fill="#1f1e1c"/>
    <path id="Path_387" data-name="Path 387" d="M8129.327,394.328c0-2.435,1.307-3.917,3.42-3.917s3.421,1.482,3.421,3.917-1.307,3.916-3.421,3.916-3.42-1.489-3.42-3.916m5.617,0c0-1.8-.793-2.829-2.2-2.829s-2.2,1.032-2.2,2.829.792,2.829,2.2,2.829,2.2-1.039,2.2-2.829" fill="#1f1e1c"/>
    <path id="Path_388" data-name="Path 388" d="M8140.618,390.411c1.556,0,2.636.786,2.794,2.028h-1.17a1.511,1.511,0,0,0-1.631-1c-.881,0-1.569.457-1.569,1.13,0,.519.413.842,1.287,1.059l1.143.281c1.4.344,2.071.962,2.071,2.05,0,1.354-1.287,2.288-2.973,2.288-1.652,0-2.788-.808-2.919-2.064h1.219a1.632,1.632,0,0,0,1.741,1.046c1,0,1.714-.485,1.714-1.18,0-.519-.385-.87-1.177-1.067l-1.273-.316c-1.391-.344-2.024-.954-2.024-2.048,0-1.257,1.191-2.2,2.767-2.2" transform="translate(-0.007)" fill="#1f1e1c"/>
    <path id="Path_389" data-name="Path 389" d="M8147.008,388.622v1.92h1.652v.992h-1.652v4.2c0,.874.331,1.246,1.1,1.246a4.916,4.916,0,0,0,.551-.028v1a3.9,3.9,0,0,1-.7.069c-1.528,0-2.141-.564-2.141-1.982v-4.5h-1.2v-.992h1.2v-1.92Z" transform="translate(-0.01)" fill="#1f1e1c"/>
    <path id="Path_390" data-name="Path 390" d="M8157.314,397.962v-4.274l-3.524-5.658h1.411l2.677,4.412h.11l2.678-4.412h1.411l-3.524,5.658v4.274Z" transform="translate(-0.015)" fill="#1f1e1c"/>
    <path id="Path_391" data-name="Path 391" d="M8162.128,394.328c0-2.435,1.308-3.917,3.421-3.917s3.421,1.482,3.421,3.917-1.308,3.916-3.421,3.916-3.421-1.489-3.421-3.916m5.617,0c0-1.8-.792-2.829-2.2-2.829s-2.2,1.032-2.2,2.829.792,2.829,2.2,2.829,2.2-1.039,2.2-2.829" transform="translate(-0.018)" fill="#1f1e1c"/>
    <path id="Path_392" data-name="Path 392" d="M8176.826,398.11H8175.7v-1.187h-.11a2.309,2.309,0,0,1-2.3,1.321c-1.666,0-2.533-1.011-2.533-2.8v-4.9h1.184v4.605c0,1.363.5,1.994,1.679,1.994a1.887,1.887,0,0,0,2.024-2.121v-4.479h1.184Z" transform="translate(-0.022 0)" fill="#1f1e1c"/>
    <path id="Path_393" data-name="Path 393" d="M8179.052,390.545h1.129v1.123h.11a2.07,2.07,0,0,1,2.058-1.257,5.133,5.133,0,0,1,.592.035v1.209a4.607,4.607,0,0,0-.757-.07,1.833,1.833,0,0,0-1.948,1.839v4.69h-1.184Z" transform="translate(-0.025 0)" fill="#1f1e1c"/>
    <path id="Path_394" data-name="Path 394" d="M8189.323,395.367c.151,1.04,1.143,1.7,2.554,1.7,1.335,0,2.319-.722,2.319-1.707,0-.846-.619-1.383-1.989-1.727l-1.273-.33c-1.8-.455-2.574-1.267-2.574-2.678,0-1.687,1.411-2.828,3.51-2.828,1.92,0,3.352,1.141,3.455,2.745h-1.246a2.036,2.036,0,0,0-2.251-1.624c-1.321,0-2.2.66-2.2,1.665,0,.779.544,1.226,1.913,1.576l1.039.276c2.059.516,2.884,1.315,2.884,2.774,0,1.824-1.437,2.987-3.709,2.987-2.106,0-3.559-1.115-3.689-2.829Z" transform="translate(-0.03)" fill="#1f1e1c"/>
    <path id="Path_395" data-name="Path 395" d="M8199.051,388.622v1.92h1.652v.992h-1.652v4.2c0,.874.331,1.246,1.1,1.246a4.919,4.919,0,0,0,.551-.028v1a3.9,3.9,0,0,1-.7.069c-1.529,0-2.141-.564-2.141-1.982v-4.5h-1.2v-.992h1.2v-1.92Z" transform="translate(-0.032)" fill="#1f1e1c"/>
    <path id="Path_396" data-name="Path 396" d="M8202.014,394.328c0-2.435,1.309-3.917,3.421-3.917s3.422,1.482,3.422,3.917-1.309,3.916-3.422,3.916-3.421-1.489-3.421-3.916m5.617,0c0-1.8-.792-2.829-2.2-2.829s-2.2,1.032-2.2,2.829.792,2.829,2.2,2.829,2.2-1.039,2.2-2.829" transform="translate(-0.042)" fill="#1f1e1c"/>
    <path id="Path_397" data-name="Path 397" d="M8210.71,390.545h1.129v1.123h.11a2.068,2.068,0,0,1,2.058-1.257,5.12,5.12,0,0,1,.592.035v1.209a4.6,4.6,0,0,0-.758-.07,1.833,1.833,0,0,0-1.947,1.839v4.69h-1.184Z" transform="translate(-0.042 0)" fill="#1f1e1c"/>
    <path id="Path_398" data-name="Path 398" d="M8216.179,400.605v-1.012a2.815,2.815,0,0,0,.5.035c.682,0,1.053-.324,1.362-1.219l.138-.44-2.746-7.427h1.28l2.037,6.105h.11l2.03-6.105h1.261l-2.9,7.874c-.633,1.72-1.225,2.23-2.54,2.23a3.449,3.449,0,0,1-.53-.041" transform="translate(-0.042 0.151)" fill="#1f1e1c"/>
  </g>
</svg>
