<svg xmlns="http://www.w3.org/2000/svg" width="75" height="104" fill="none" viewBox="0 0 75 104">
    <path fill="#52E7FF" d="M113.919 8.125c.023 0 .046.012.081.012V4.863c-.023 0-.046.012-.081.012-2.695 0-4.878-2.182-4.878-4.875H105.8c0 2.693-2.184 4.875-4.878 4.875-2.695 0-4.878-2.182-4.878-4.875h-3.24c0 2.693-2.184 4.875-4.88 4.875-2.694 0-4.877-2.182-4.877-4.875h-3.24c0 2.693-2.184 4.875-4.879 4.875-2.695 0-4.878-2.182-4.878-4.875h-3.24c0 2.693-2.184 4.875-4.879 4.875-2.694 0-4.878-2.182-4.878-4.875h-3.24c0 2.693-2.184 4.875-4.879 4.875-2.694 0-4.878-2.182-4.878-4.875h-3.24c0 2.693-2.184 4.875-4.879 4.875v3.25c2.695 0 4.879 2.182 4.879 4.875s-2.184 4.875-4.879 4.875v3.25c2.695 0 4.879 2.182 4.879 4.875s-2.184 4.875-4.879 4.875v3.25c2.695 0 4.879 2.182 4.879 4.875s-2.184 4.875-4.879 4.875v3.25c2.695 0 4.879 2.182 4.879 4.875s-2.184 4.875-4.879 4.875v3.25c2.695 0 4.879 2.182 4.879 4.875s-2.184 4.875-4.879 4.875v3.25c2.695 0 4.879 2.182 4.879 4.875s-2.184 4.875-4.879 4.875v3.25c2.695 0 4.879 2.182 4.879 4.875s-2.184 4.875-4.879 4.875v3.25c2.695 0 4.879 2.182 4.879 4.875h3.24c0-2.693 2.184-4.875 4.878-4.875 2.695 0 4.878 2.182 4.878 4.875h3.24c0-2.693 2.184-4.875 4.88-4.875 2.694 0 4.877 2.182 4.877 4.875h3.24c0-2.693 2.184-4.875 4.879-4.875 2.695 0 4.878 2.182 4.878 4.875h3.24c0-2.693 2.184-4.875 4.879-4.875 2.695 0 4.878 2.182 4.878 4.875h3.24c0-2.693 2.184-4.875 4.879-4.875 2.694 0 4.878 2.182 4.878 4.875h3.241c0-2.693 2.183-4.875 4.878-4.875.023 0 .046.012.081.012v-3.262c-.023 0-.046.012-.081.012-2.695 0-4.878-2.183-4.878-4.875 0-2.693 2.183-4.875 4.878-4.875.023 0 .046.011.081.011v-3.261c-.023 0-.046.011-.081.011-2.695 0-4.878-2.182-4.878-4.875s2.183-4.875 4.878-4.875c.023-.023.058-.023.081-.023v-3.262c-.023 0-.046.012-.081.012-2.695 0-4.878-2.182-4.878-4.875s2.183-4.875 4.878-4.875c.023 0 .046.012.081.012v-3.262c-.023 0-.046.012-.081.012-2.695 0-4.878-2.182-4.878-4.875s2.183-4.875 4.878-4.875c.023 0 .046.011.081.011v-3.261c-.023 0-.046.011-.081.011-2.695 0-4.878-2.182-4.878-4.875s2.183-4.875 4.878-4.875c.023 0 .046.012.081.012v-3.262c-.023 0-.046.012-.081.012-2.695 0-4.878-2.182-4.878-4.875s2.183-4.875 4.878-4.875c.023 0 .046.011.081.011V17.91c-.023 0-.046.011-.081.011-2.695 0-4.878-2.182-4.878-4.875 0-2.692 2.183-4.921 4.878-4.921zM100.992 91H48.957V13h52.035v78z"/>
    <path fill="#FFD24A" fill-rule="evenodd" d="M0 32.465c0-1.122.91-2.032 2.034-2.032 5.204 0 7.894.993 10.43 1.939l.037.013c2.308.86 4.477 1.67 8.964 1.67 4.494 0 6.667-.81 8.977-1.67l.034-.014c2.538-.945 5.228-1.938 10.432-1.938 5.205 0 7.895.993 10.432 1.938l.035.014c2.31.86 4.482 1.67 8.976 1.67 4.495 0 6.667-.81 8.977-1.67l.035-.014c2.537-.945 5.227-1.938 10.431-1.938 5.205 0 7.895.993 10.432 1.938l.035.014c2.31.86 4.482 1.67 8.977 1.67 1.123 0 2.033.91 2.033 2.032 0 1.122-.91 2.032-2.033 2.032-5.205 0-7.894-.993-10.432-1.939l-.035-.013c-2.31-.86-4.482-1.67-8.977-1.67-4.494 0-6.666.81-8.976 1.67l-.035.013c-2.537.946-5.227 1.94-10.432 1.94-5.204 0-7.894-.994-10.431-1.94l-.035-.013c-2.31-.86-4.482-1.67-8.977-1.67-4.494 0-6.666.81-8.976 1.67l-.035.013c-2.538.946-5.227 1.94-10.432 1.94-5.2 0-7.886-.994-10.422-1.94l-.033-.012c-2.309-.86-4.48-1.67-8.976-1.67C.91 34.498 0 33.588 0 32.465zM0 45.686c0-1.123.91-2.033 2.034-2.033 5.206 0 7.896.997 10.433 1.946l.036.014c2.308.863 4.477 1.673 8.962 1.673 4.493 0 6.665-.811 8.975-1.674l.034-.013c2.538-.949 5.229-1.946 10.434-1.946 5.206 0 7.896.997 10.434 1.946l.035.013c2.31.863 4.481 1.674 8.974 1.674 4.494 0 6.665-.811 8.975-1.674l.035-.013c2.538-.949 5.228-1.946 10.433-1.946 5.206 0 7.897.997 10.434 1.946l.035.013c2.31.863 4.481 1.674 8.975 1.674 1.123 0 2.033.91 2.033 2.033 0 1.122-.91 2.032-2.033 2.032-5.206 0-7.896-.997-10.434-1.945l-.035-.013c-2.31-.863-4.481-1.675-8.975-1.675-4.493 0-6.664.812-8.974 1.675l-.035.013c-2.538.948-5.228 1.945-10.434 1.945-5.205 0-7.895-.997-10.434-1.945l-.034-.013c-2.31-.863-4.482-1.675-8.975-1.675-4.493 0-6.664.812-8.974 1.675l-.035.013c-2.538.948-5.228 1.945-10.434 1.945-5.2 0-7.888-.997-10.424-1.945l-.033-.012c-2.308-.864-4.48-1.676-8.974-1.676C.91 47.718 0 46.808 0 45.686zM0 58.93c0-1.123.91-2.033 2.034-2.033 5.206 0 7.896.997 10.433 1.946l.036.013c2.308.863 4.477 1.674 8.962 1.674 4.493 0 6.665-.811 8.975-1.675l.034-.013c2.538-.948 5.229-1.945 10.434-1.945 5.206 0 7.896.997 10.434 1.945l.035.013c2.31.864 4.481 1.675 8.974 1.675 4.494 0 6.665-.811 8.975-1.675l.035-.013c2.538-.948 5.228-1.945 10.433-1.945 5.206 0 7.897.997 10.434 1.945l.035.013c2.31.864 4.481 1.675 8.975 1.675 1.123 0 2.033.91 2.033 2.033 0 1.122-.91 2.032-2.033 2.032-5.206 0-7.896-.997-10.434-1.945l-.035-.013c-2.31-.864-4.481-1.675-8.975-1.675-4.493 0-6.664.811-8.974 1.675l-.035.013c-2.538.948-5.228 1.945-10.434 1.945-5.205 0-7.895-.997-10.434-1.945l-.034-.013c-2.31-.864-4.482-1.675-8.975-1.675-4.493 0-6.664.811-8.974 1.675l-.035.013c-2.538.948-5.228 1.945-10.434 1.945-5.2 0-7.888-.997-10.424-1.945l-.033-.013c-2.308-.863-4.48-1.675-8.974-1.675C.91 60.962 0 60.052 0 58.93z" clip-rule="evenodd"/>
</svg>
