<svg xmlns="http://www.w3.org/2000/svg" width="128" height="21" viewBox="0 0 128 21">
  <g id="title" transform="translate(-8107.847 -359.846)">
    <path id="Path_379" data-name="Path 379" d="M8111.309,379.883a2.034,2.034,0,0,1-2.86,0,1.937,1.937,0,0,1-.6-1.443v-15.9a2.327,2.327,0,0,1,2.326-2.325h4.332q7.939,0,7.941,6.359a6.469,6.469,0,0,1-1.07,3.767,6.091,6.091,0,0,1-2.794,2.243,10.536,10.536,0,0,1-3.97.7h-2.434a.236.236,0,0,0-.267.267v4.889a1.935,1.935,0,0,1-.6,1.443m.6-10.072a.237.237,0,0,0,.267.268h2.166q4.117,0,4.118-3.5a2.744,2.744,0,0,0-1.043-2.431,5.693,5.693,0,0,0-3.208-.721h-2.033a.236.236,0,0,0-.267.267Z" transform="translate(0 0)" fill="#1f1e1c"/>
    <path id="Path_380" data-name="Path 380" d="M8141.268,377.986a8.965,8.965,0,0,1-13.128,0,11.316,11.316,0,0,1-2.5-7.721,11.048,11.048,0,0,1,2.487-7.641,9.175,9.175,0,0,1,13.154,0,11.046,11.046,0,0,1,2.487,7.641,11.321,11.321,0,0,1-2.5,7.721m-10.147-2.565a4.322,4.322,0,0,0,7.192,0,8.881,8.881,0,0,0,1.337-5.156,8.565,8.565,0,0,0-1.337-5.089,4.423,4.423,0,0,0-7.205,0,8.626,8.626,0,0,0-1.324,5.089,8.881,8.881,0,0,0,1.337,5.156" fill="#1f1e1c"/>
    <path id="Path_381" data-name="Path 381" d="M8154.315,380.846a10.534,10.534,0,0,1-5.962-1.817,1.511,1.511,0,0,1-.695-1.176v-.187a1.677,1.677,0,0,1,.454-1.149,1.721,1.721,0,0,1,1.2-.641,1.231,1.231,0,0,1,.241-.027,2.073,2.073,0,0,1,1.15.348,7.065,7.065,0,0,0,3.716,1.149,3.946,3.946,0,0,0,2.38-.616,2.007,2.007,0,0,0,.829-1.71,1.753,1.753,0,0,0-.642-1.482,10.978,10.978,0,0,0-2.193-1.163c-.089-.035-.151-.062-.187-.08l-2.727-1.149a7.911,7.911,0,0,1-2.928-2.083,4.943,4.943,0,0,1-1.163-3.366,5.246,5.246,0,0,1,1.979-4.181,7.524,7.524,0,0,1,5.026-1.671,8.944,8.944,0,0,1,5.107,1.55,1.364,1.364,0,0,1,.615,1.1v.134a1.665,1.665,0,0,1-.4,1.1,1.561,1.561,0,0,1-1.1.588,1.361,1.361,0,0,1-.268.027,2.058,2.058,0,0,1-1.016-.267,6.016,6.016,0,0,0-2.941-.748,3.658,3.658,0,0,0-2.139.562,1.814,1.814,0,0,0-.8,1.576,1.738,1.738,0,0,0,.214.881,2.119,2.119,0,0,0,.709.7,8.226,8.226,0,0,0,.882.508q.387.187,1.19.481c.089.036.151.063.187.08l2.647,1.122a7.467,7.467,0,0,1,3.048,2.124,5.228,5.228,0,0,1,1.043,3.379,5.555,5.555,0,0,1-2.019,4.355,7.978,7.978,0,0,1-5.441,1.764" transform="translate(0.155)" fill="#1f1e1c"/>
    <path id="Path_382" data-name="Path 382" d="M8172.83,379.883a2.019,2.019,0,0,1-3.449-1.443V363.854a.237.237,0,0,0-.268-.268h-3.743a1.683,1.683,0,0,1,0-3.366h12.112a1.683,1.683,0,0,1,0,3.366h-3.8a.236.236,0,0,0-.267.268v14.586a1.961,1.961,0,0,1-.588,1.443" transform="translate(0.22 0)" fill="#1f1e1c"/>
    <path id="Path_383" data-name="Path 383" d="M8196.839,377.986a8.965,8.965,0,0,1-13.128,0,11.316,11.316,0,0,1-2.5-7.721,11.046,11.046,0,0,1,2.487-7.641,9.174,9.174,0,0,1,13.153,0,11.046,11.046,0,0,1,2.487,7.641,11.321,11.321,0,0,1-2.5,7.721m-10.147-2.565a4.322,4.322,0,0,0,7.192,0,8.878,8.878,0,0,0,1.337-5.156,8.561,8.561,0,0,0-1.337-5.089,4.423,4.423,0,0,0-7.2,0,8.622,8.622,0,0,0-1.324,5.089,8.881,8.881,0,0,0,1.337,5.156" transform="translate(0.296)" fill="#1f1e1c"/>
    <path id="Path_384" data-name="Path 384" d="M8218.282,378.521a1.27,1.27,0,0,1,.187.641,1.418,1.418,0,0,1-.187.668,1.243,1.243,0,0,1-1.15.64,3.705,3.705,0,0,1-1.937-.535,3.617,3.617,0,0,1-1.378-1.442l-2.968-5.451a.433.433,0,0,0-.4-.241h-2.273a.237.237,0,0,0-.268.268v5.37a1.937,1.937,0,0,1-.6,1.443,2.034,2.034,0,0,1-2.86,0,1.938,1.938,0,0,1-.6-1.443v-15.9a2.327,2.327,0,0,1,2.327-2.324h4.732q7.62,0,7.62,6.144a5.691,5.691,0,0,1-3.609,5.717c-.161.071-.2.178-.107.321Zm-10.107-15.094a.236.236,0,0,0-.268.267v5.638a.236.236,0,0,0,.268.267h2.354a4.767,4.767,0,0,0,2.994-.815,2.881,2.881,0,0,0,1.043-2.417,2.522,2.522,0,0,0-1-2.271,5.536,5.536,0,0,0-3.033-.667Z" transform="translate(0.441)" fill="#1f1e1c"/>
    <path id="Path_385" data-name="Path 385" d="M8229.457,379.883a2.036,2.036,0,0,1-2.861,0,1.941,1.941,0,0,1-.6-1.443v-5.13a1.239,1.239,0,0,0-.107-.508l-5.054-10.633a1.411,1.411,0,0,1-.133-.588,1.359,1.359,0,0,1,.214-.721,1.278,1.278,0,0,1,1.149-.642,3.105,3.105,0,0,1,1.792.549,3.211,3.211,0,0,1,1.176,1.456l1.229,2.939q1.017,2.7,1.711,4.435a.138.138,0,0,0,.161,0q1.685-4.141,1.791-4.435l1.23-2.993a2.969,2.969,0,0,1,1.149-1.416,3.076,3.076,0,0,1,1.737-.535,1.294,1.294,0,0,1,1.15.615,1.359,1.359,0,0,1,.214.721,1.174,1.174,0,0,1-.16.561l-5.08,10.687a1.223,1.223,0,0,0-.107.508v5.13a1.938,1.938,0,0,1-.6,1.443" transform="translate(0.441 0)" fill="#1f1e1c"/>
  </g>
</svg>
