<svg xmlns="http://www.w3.org/2000/svg" width="45" height="45" fill="none" viewBox="0 0 45 45">
    <path fill="#FFD24A" d="M33.388 18.204l-3.025-.557c0-.024.006-.054.006-.078v-2.343c0-3.433-3.152-6.226-7.026-6.226-3.875 0-7.021 2.793-7.021 6.226v2.43l-3.02.553c-1.037.157-1.793.95-1.793 1.888V32.77c0 1.057.971 1.918 2.164 1.918h19.345c1.192 0 2.164-.861 2.164-1.918V20.097c0-.939-.75-1.731-1.794-1.893zm-8.108 8.623v2.362c0 .352-.32.636-.718.636H22.14c-.392 0-.713-.284-.713-.63v-2.353c-.86-.504-1.385-1.316-1.451-2.26-.06-.836.254-1.633.883-2.245.624-.601 1.48-.944 2.406-.963 1.905-.04 3.467 1.325 3.467 3.003-.006.944-.552 1.868-1.452 2.45zm2.511-9.655l-.16-.029c-.005 0-.01 0-.016-.005-1.397-.21-2.826-.318-4.245-.318-1.407 0-2.831.108-4.222.313-.006 0-.011 0-.017.005l-.231.044v-1.956c0-2.171 1.992-3.937 4.443-3.937 2.45 0 4.443 1.766 4.443 3.937v1.946h.005z"/>
    <path fill="#1F1E1C" fill-rule="evenodd" d="M22.03 9.863c-3.003 0-5.447 2.263-5.447 5.07v2.286l1.096-.21.017-.004c2.893-.453 5.843-.453 8.736.006l.01.001.007.002 1.028.2v-2.281c0-2.803-2.44-5.07-5.447-5.07zm-6.378 5.07v2.466l-3.984.766c-1.075.17-1.85 1.038-1.85 2.041v13.72c0 1.145 1 2.074 2.236 2.074h19.952c1.236 0 2.236-.934 2.23-2.076V20.206c0-1.005-.777-1.865-1.848-2.04l-3.98-.772v-2.461c0-3.268-2.847-5.928-6.378-5.928-3.525 0-6.378 2.654-6.378 5.928zm2.21 2.917l-6.012 1.156-.018.004c-.622.095-1.083.599-1.083 1.196v13.72c0 .677.59 1.216 1.305 1.216h19.952c.715 0 1.303-.543 1.299-1.214V20.207c0-.596-.46-1.098-1.085-1.198-.006 0-.011-.002-.017-.003l-5.938-1.151c-2.782-.441-5.62-.441-8.404-.005zm4.106 4.594c1.436-.031 2.623 1.045 2.623 2.386 0 .871-.553 1.65-1.276 2.07-.136.078-.218.215-.218.363v2.611H20.98v-2.611c0-.156-.09-.299-.238-.375-.74-.382-1.204-1.07-1.262-1.887-.096-1.375 1.027-2.526 2.488-2.557zm3.554 2.386c0-1.814-1.608-3.286-3.576-3.244-2.01.043-3.525 1.628-3.396 3.47v.001c.071 1.006.61 1.896 1.498 2.445v2.55c0 .363.317.68.736.68h2.503c.413 0 .742-.311.742-.686v-2.558c.85-.578 1.493-1.546 1.493-2.658z" clip-rule="evenodd"/>
</svg>
