<svg xmlns="http://www.w3.org/2000/svg" width="55" height="55" fill="none" viewBox="0 0 55 55">
    <path fill="#969592" fill-rule="evenodd" d="M33.395 21.962c-.959-.88-2.639-1.935-5.13-1.935-3.508 0-6.485 2.267-7.56 5.402l-4.29-3.265C18.596 17.918 23.077 15 28.265 15c3.582 0 6.574 1.285 8.873 3.38l-3.743 3.582zm7.325 3.67c.192.808.28 1.588.28 2.657 0 3.958-1.444 7.294-3.95 9.562C34.854 39.844 31.847 41 28.265 41c-5.188 0-9.654-2.918-11.835-7.164l4.218-3.211-4.233 3.21C15.515 32.075 15 30.096 15 28c0-2.094.516-4.073 1.415-5.835l4.29 3.264c-.266.809-.428 1.676-.428 2.571 0 .896.162 1.762.442 2.571 1.061 3.134 4.038 5.402 7.546 5.402 1.975 0 3.479-.534 4.599-1.3l2.687 2.04-2.687-2.04c1.769-1.213 2.565-3.019 2.712-4.218h-7.31v-4.824H40.72z" clip-rule="evenodd"/>
</svg>
