<svg xmlns="http://www.w3.org/2000/svg" width="45" height="45" fill="none" viewBox="0 0 45 45">
    <path fill="#FFD24A" d="M32.865 12.834C30.312 10.363 26.923 9 23.318 9c-3.604 0-6.994 1.363-9.546 3.834-2.548 2.475-3.954 5.762-3.954 9.257s1.406 6.782 3.954 9.257c2.548 2.471 5.942 3.834 9.546 3.834 3.605 0 6.994-1.363 9.547-3.834 2.548-2.47 3.953-5.762 3.953-9.257s-1.405-6.782-3.953-9.257zm-2.405 18.37c-1.984 1.465-4.46 2.337-7.142 2.337-2.682 0-5.158-.872-7.142-2.336-.325-.242-.463-.654-.334-1.03.693-2.007 2.356-3.634 4.493-4.431.287-.107.344-.482.096-.659-1.234-.866-2.037-2.276-2.037-3.866 0-2.693 2.314-4.876 5.12-4.77 2.63.098 4.728 2.216 4.728 4.77 0 1.59-.803 3-2.036 3.866-.249.177-.192.552.095.659 2.128.792 3.786 2.41 4.489 4.408.13.385 0 .807-.33 1.052z"/>
    <path fill="#1F1E1C" fill-rule="evenodd" d="M8.95 22.5c0-7.031 5.7-12.73 12.732-12.73 7.03 0 12.73 5.699 12.73 12.73 0 4.084-1.923 7.72-4.913 10.05-.215-3.13-2.545-5.698-5.645-6.529 1.628-.802 2.749-2.479 2.749-4.417 0-2.717-2.203-4.92-4.921-4.92-2.718 0-4.92 2.203-4.92 4.92 0 1.938 1.12 3.615 2.748 4.417-3.1.831-5.43 3.398-5.645 6.528-2.99-2.33-4.914-5.965-4.914-10.049zm5.662 10.59c2.022 1.352 4.454 2.141 7.07 2.141 2.616 0 5.047-.789 7.07-2.142-.004-.021-.006-.043-.006-.065 0-3.47-2.954-6.346-6.723-6.51-.112.007-.226.011-.341.011-.115 0-.229-.004-.342-.012-3.769.165-6.722 3.041-6.722 6.511 0 .022-.002.044-.006.065zM21.682 9c-7.456 0-13.5 6.044-13.5 13.5S14.226 36 21.682 36s13.5-6.044 13.5-13.5S29.138 9 21.682 9zm0 8.453c-2.293 0-4.152 1.858-4.152 4.151 0 2.183 1.684 3.972 3.824 4.14.108-.005.218-.007.328-.007.11 0 .22.002.328.006 2.14-.167 3.824-1.956 3.824-4.139 0-2.293-1.859-4.151-4.152-4.151z" clip-rule="evenodd"/>
</svg>
