<svg xmlns="http://www.w3.org/2000/svg" width="55" height="55" fill="none" viewBox="0 0 55 55">
    <path fill="#969592" d="M27.841 18.462c1.276 0 2.875-.855 3.828-1.994.862-1.033 1.491-2.474 1.491-3.916 0-.196-.018-.392-.054-.552-1.42.053-3.126.943-4.15 2.136-.81.908-1.546 2.332-1.546 3.791 0 .214.036.428.054.499.09.018.234.036.377.036zM23.35 40c1.743 0 2.516-1.157 4.69-1.157 2.21 0 2.695 1.121 4.636 1.121 1.905 0 3.18-1.744 4.384-3.453 1.348-1.958 1.905-3.88 1.941-3.97-.126-.035-3.773-1.512-3.773-5.66 0-3.596 2.875-5.215 3.036-5.34-1.904-2.706-4.797-2.777-5.588-2.777-2.138 0-3.881 1.282-4.977 1.282-1.186 0-2.75-1.21-4.6-1.21-3.522 0-7.098 2.883-7.098 8.33 0 3.382 1.33 6.96 2.965 9.274 1.401 1.958 2.623 3.56 4.384 3.56z"/>
</svg>
