<svg xmlns="http://www.w3.org/2000/svg" width="55" height="55" fill="none" viewBox="0 0 55 55">
    <path fill="#C7C6C3" d="M29.186 30.443c-.19.107-.4.167-.611.167-.21 0-.421-.053-.611-.167l-15.305-8.875c-.23-.127-.516.033-.516.287V35.33c0 1.4 1.155 2.534 2.581 2.534H42.42c1.426 0 2.581-1.134 2.581-2.534V21.855c0-.26-.285-.42-.516-.287l-15.298 8.875z"/>
    <path fill="#C7C6C3" d="M29.254 27.663l15.57-9.03c.108-.066.176-.186.17-.313-.116-1.3-1.224-2.32-2.575-2.32H14.724c-1.352 0-2.459 1.02-2.574 2.32-.007.127.06.247.17.314l15.576 9.029c.414.24.937.24 1.358 0z"/>
    <path fill="#969592" fill-rule="evenodd" d="M11.18 18.669c0-.832.687-1.51 1.539-1.51H41.84c.847 0 1.539.674 1.539 1.51v.28l-.015.008-16.081 10.467-16.089-10.467-.014-.009v-.28zm0 1.668v15.994c0 .836.692 1.51 1.539 1.51H41.84c.842 0 1.532-.676 1.539-1.512V20.338l-15.77 10.264c-.198.128-.455.128-.652 0L11.18 20.337zM12.719 16C11.213 16 10 17.2 10 18.669V36.33C10 37.81 11.223 39 12.719 39H41.84c1.5 0 2.71-1.201 2.719-2.665V18.669c0-1.478-1.223-2.669-2.719-2.669H12.719z" clip-rule="evenodd"/>
</svg>
