<svg xmlns="http://www.w3.org/2000/svg" width="55" height="55" fill="none" viewBox="0 0 55 55">
    <path fill="#FFD24A" d="M36.993 11.008H19.979c-1.108 0-2.008.878-2.008 1.958v28.53c0 1.08.9 1.958 2.008 1.958h17.014c1.107 0 2.007-.878 2.007-1.958v-28.53c0-1.08-.9-1.957-2.007-1.957zM26.202 40.115c0-.521.434-.939.962-.939h2.813c.535 0 .963.424.963.94 0 .515-.434.938-.963.938h-2.813c-.535.006-.962-.417-.962-.939zm9.614-2.94h-14.68v-22.16h14.68v22.16z"/>
    <path fill="#008169" fill-rule="evenodd" d="M18.094 12.048c-.563 0-1.008.435-1.008.948v29.008c0 .513.445.948 1.008.948h17.769c.563 0 1.008-.435 1.008-.948V12.996c0-.513-.445-.948-1.008-.948h-17.77zM16 12.996c0-1.108.948-1.996 2.094-1.996h17.769c1.145 0 2.093.888 2.093 1.996v29.008c0 1.108-.948 1.996-2.093 1.996h-17.77C16.949 44 16 43.112 16 42.004V12.996zm2.76 2.084c0-.289.243-.524.543-.524h15.33c.3 0 .544.235.544.524v22.531c0 .29-.243.524-.543.524H19.303c-.3 0-.543-.235-.543-.524v-22.53zm1.086.524v21.483H34.09V15.604H19.846zm5.752 24.403c-.3 0-.543.235-.543.524 0 .29.243.524.543.524h2.938c.3 0 .542-.235.542-.524 0-.29-.243-.524-.542-.524h-2.938z" clip-rule="evenodd"/>
</svg>
